<svg width="39" height="39" viewBox="0 0 39 39" fill="none" xmlns="http://www.w3.org/2000/svg">
<path d="M4.875 19.5L8.125 16.25M8.125 16.25L19.5 4.875L30.875 16.25M8.125 16.25V32.5C8.125 32.931 8.29621 33.3443 8.60095 33.649C8.9057 33.9538 9.31902 34.125 9.75 34.125H14.625M30.875 16.25L34.125 19.5M30.875 16.25V32.5C30.875 32.931 30.7038 33.3443 30.399 33.649C30.0943 33.9538 29.681 34.125 29.25 34.125H24.375M14.625 34.125C15.056 34.125 15.4693 33.9538 15.774 33.649C16.0788 33.3443 16.25 32.931 16.25 32.5V26C16.25 25.569 16.4212 25.1557 16.726 24.851C17.0307 24.5462 17.444 24.375 17.875 24.375H21.125C21.556 24.375 21.9693 24.5462 22.274 24.851C22.5788 25.1557 22.75 25.569 22.75 26V32.5C22.75 32.931 22.9212 33.3443 23.226 33.649C23.5307 33.9538 23.944 34.125 24.375 34.125M14.625 34.125H24.375" stroke="white" stroke-width="2.5" stroke-linecap="round" stroke-linejoin="round"/>
</svg>
