<svg width="40" height="40" viewBox="0 0 40 40" fill="none" xmlns="http://www.w3.org/2000/svg">
<path d="M3.33325 36.6667C3.33325 34.3084 3.33325 33.1301 4.06659 32.4001C4.79825 31.6667 5.97659 31.6667 8.33325 31.6667C10.6916 31.6667 11.8699 31.6667 12.5999 32.4001C13.3333 33.1317 13.3333 34.3101 13.3333 36.6667V21.6667C13.3333 19.3084 13.3333 18.1301 14.0666 17.4001C14.7983 16.6667 15.9766 16.6667 18.3333 16.6667H21.6666C24.0249 16.6667 25.2033 16.6667 25.9333 17.4001C26.6666 18.1317 26.6666 19.3101 26.6666 21.6667V36.6667V31.6667C26.6666 29.3084 26.6666 28.1301 27.3999 27.4001C28.1316 26.6667 29.3099 26.6667 31.6666 26.6667C34.0249 26.6667 35.2033 26.6667 35.9333 27.4001C36.6666 28.1317 36.6666 29.3101 36.6666 31.6667V36.6667" stroke="white" stroke-width="2" stroke-linecap="round"/>
<path d="M18.5766 5.03837C19.21 3.90004 19.5266 3.33337 20 3.33337C20.4733 3.33337 20.79 3.90004 21.4233 5.03837L21.5866 5.33171C21.7666 5.65504 21.8566 5.81504 21.9966 5.92171C22.1383 6.02837 22.3133 6.06837 22.6633 6.14671L22.98 6.22004C24.21 6.49837 24.825 6.63671 24.9716 7.10671C25.1183 7.57837 24.6983 8.06837 23.86 9.04837L23.6433 9.30171C23.405 9.58004 23.285 9.71837 23.2316 9.89171C23.1783 10.065 23.1966 10.25 23.2316 10.6217L23.265 10.96C23.3916 12.2684 23.455 12.9234 23.0733 13.2134C22.69 13.505 22.1133 13.2384 20.9616 12.7084L20.665 12.5717C20.3366 12.4217 20.1733 12.345 20 12.345C19.8266 12.345 19.6633 12.4217 19.335 12.5717L19.0383 12.7084C17.8866 13.2384 17.31 13.505 16.9266 13.2134C16.5433 12.9234 16.6083 12.2684 16.735 10.96L16.7683 10.6217C16.8033 10.25 16.8216 10.065 16.7683 9.89171C16.715 9.72004 16.595 9.58004 16.3566 9.30171L16.14 9.04837C15.3016 8.06837 14.8816 7.57837 15.0283 7.10671C15.175 6.63671 15.79 6.49837 17.02 6.22004L17.3366 6.14671C17.6866 6.06837 17.8616 6.03004 18.0033 5.92171C18.1433 5.81504 18.2333 5.65504 18.4133 5.33171L18.5766 5.03837Z" stroke="white" stroke-width="2"/>
</svg>
