<svg width="14" height="14" viewBox="0 0 14 14" fill="none" xmlns="http://www.w3.org/2000/svg">
<g clip-path="url(#clip0_556_16)">
<path d="M12.5 3H1.5C0.947715 3 0.5 3.44772 0.5 4V7C0.5 7.55228 0.947715 8 1.5 8H12.5C13.0523 8 13.5 7.55228 13.5 7V4C13.5 3.44772 13.0523 3 12.5 3Z" stroke="black" stroke-linecap="round" stroke-linejoin="round"/>
<path d="M12.5 8V12.5C12.5 12.7652 12.3946 13.0196 12.2071 13.2071C12.0196 13.3946 11.7652 13.5 11.5 13.5H2.5C2.23478 13.5 1.98043 13.3946 1.79289 13.2071C1.60536 13.0196 1.5 12.7652 1.5 12.5V8M7 3V13.5M7 3L10 0.5M7 3L4 0.5" stroke="black" stroke-linecap="round" stroke-linejoin="round"/>
</g>
<defs>
<clipPath id="clip0_556_16">
<rect width="14" height="14" fill="white"/>
</clipPath>
</defs>
</svg>
