<svg width="87" height="87" viewBox="0 0 87 87" fill="none" xmlns="http://www.w3.org/2000/svg">
<path d="M65.25 27.1875C67.6535 27.1875 69.9586 26.2327 71.6582 24.5332C73.3577 22.8336 74.3125 20.5285 74.3125 18.125C74.3125 15.7215 73.3577 13.4164 71.6582 11.7168C69.9586 10.0173 67.6535 9.0625 65.25 9.0625C62.8465 9.0625 60.5414 10.0173 58.8418 11.7168C57.1423 13.4164 56.1875 15.7215 56.1875 18.125C56.1875 20.5285 57.1423 22.8336 58.8418 24.5332C60.5414 26.2327 62.8465 27.1875 65.25 27.1875Z" stroke="white" stroke-width="4"/>
<path d="M21.7501 30.3956L36.2555 25.3714L56.1876 34.8852L36.2555 49.7423L56.1876 62.8648L43.5146 79.7464M64.0176 39.228L68.8787 41.8724L79.7501 31.6571M30.5389 57.1753L25.1558 64.2658L7.25732 74.3071" stroke="white" stroke-width="4" stroke-linecap="round" stroke-linejoin="round"/>
</svg>
