<svg width="45" height="45" viewBox="0 0 45 45" fill="none" xmlns="http://www.w3.org/2000/svg">
<path d="M22.5 4.57031C18.9539 4.57031 15.4873 5.62187 12.5388 7.59201C9.59028 9.56215 7.29219 12.3624 5.93514 15.6386C4.57808 18.9148 4.22301 22.5199 4.91483 25.9979C5.60666 29.4759 7.31429 32.6707 9.8218 35.1782C12.3293 37.6857 15.5241 39.3934 19.0021 40.0852C22.4801 40.777 26.0852 40.4219 29.3614 39.0649C32.6376 37.7078 35.4379 35.4097 37.408 32.4612C39.3781 29.5127 40.4297 26.0462 40.4297 22.5C40.4241 17.7465 38.5333 13.1892 35.172 9.82796C31.8108 6.4667 27.2535 4.5759 22.5 4.57031ZM12.5578 34.8047C13.5893 33.0895 15.0469 31.6704 16.7891 30.6852C18.5312 29.7 20.4986 29.1822 22.5 29.1822C24.5014 29.1822 26.4688 29.7 28.211 30.6852C29.9531 31.6704 31.4107 33.0895 32.4422 34.8047C29.6303 37.0848 26.1202 38.3292 22.5 38.3292C18.8798 38.3292 15.3697 37.0848 12.5578 34.8047ZM16.5234 21.0938C16.5234 19.9117 16.874 18.7562 17.5307 17.7733C18.1874 16.7905 19.1208 16.0245 20.2129 15.5721C21.305 15.1198 22.5066 15.0014 23.666 15.232C24.8253 15.4626 25.8902 16.0318 26.7261 16.8677C27.5619 17.7035 28.1311 18.7684 28.3617 19.9278C28.5923 21.0871 28.474 22.2888 28.0216 23.3809C27.5693 24.473 26.8032 25.4064 25.8204 26.0631C24.8376 26.7198 23.6821 27.0703 22.5 27.0703C20.9149 27.0703 19.3948 26.4406 18.2739 25.3198C17.1531 24.199 16.5234 22.6788 16.5234 21.0938ZM34.0154 33.3352C32.3583 30.7585 29.8813 28.8153 26.9842 27.8191C28.4288 26.8569 29.5255 25.4554 30.112 23.8218C30.6986 22.1882 30.7439 20.4092 30.2412 18.7478C29.7386 17.0864 28.7147 15.6309 27.3209 14.5964C25.9272 13.5619 24.2375 13.0034 22.5018 13.0034C20.766 13.0034 19.0764 13.5619 17.6826 14.5964C16.2888 15.6309 15.2649 17.0864 14.7623 18.7478C14.2596 20.4092 14.305 22.1882 14.8915 23.8218C15.4781 25.4554 16.5747 26.8569 18.0193 27.8191C15.1222 28.8153 12.6452 30.7585 10.9881 33.3352C8.86963 31.0871 7.45564 28.268 6.92059 25.2257C6.38553 22.1834 6.75283 19.051 7.97715 16.215C9.20147 13.379 11.2292 10.9635 13.8103 9.26642C16.3914 7.56938 19.4128 6.66507 22.5018 6.66507C25.5908 6.66507 28.6122 7.56938 31.1932 9.26642C33.7743 10.9635 35.8021 13.379 37.0264 16.215C38.2507 19.051 38.618 22.1834 38.0829 25.2257C37.5479 28.268 36.1339 31.0871 34.0154 33.3352Z" fill="white"/>
</svg>
